<?xml version="1.0" encoding="iso-8859-1"?>
<!-- Generator: Adobe Illustrator 19.0.0, SVG Export Plug-In . SVG Version: 6.00 Build 0)  -->
<svg version="1.1" id="Layer_1" xmlns="http://www.w3.org/2000/svg" xmlns:xlink="http://www.w3.org/1999/xlink" x="0px" y="0px"
	 viewBox="0 0 512.001 512.001" style="enable-background:new 0 0 512.001 512.001;" xml:space="preserve">
<path style="fill:#8AE9FF;" d="M21.239,185.56l212.867,189.945c12.474,11.131,31.315,11.131,43.789,0L490.761,185.56
	c22.539-20.112,8.313-57.421-21.895-57.421H43.134C12.927,128.138-1.3,165.449,21.239,185.56z"/>
<g>
	<path style="fill:#248A9C;" d="M256.001,394.061c-10.256,0-20.508-3.647-28.686-10.944L14.449,193.171
		C0.995,181.166-3.548,162.522,2.876,145.674s22.227-27.735,40.258-27.735h425.732c18.031,0,33.833,10.886,40.258,27.735
		c6.424,16.849,1.882,35.493-11.572,47.497L284.687,383.115C276.51,390.412,266.253,394.061,256.001,394.061z M28.031,177.951
		l212.867,189.945c8.61,7.683,21.596,7.684,30.207-0.001L483.97,177.951c8.599-7.671,8.784-17.95,6.093-25.009
		c-2.693-7.06-9.674-14.603-21.196-14.603H43.134c-11.523,0-18.505,7.544-21.196,14.602
		C19.246,160.001,19.432,170.277,28.031,177.951z"/>
	<path style="fill:#248A9C;" d="M380.31,249.613c-2.806,0-5.6-1.151-7.615-3.409c-3.751-4.203-3.382-10.651,0.82-14.402l5.234-4.67
		c4.205-3.749,10.653-3.38,14.402,0.82c3.75,4.203,3.382,10.651-0.82,14.402l-5.234,4.67
		C385.152,248.76,382.725,249.613,380.31,249.613z"/>
	<path style="fill:#248A9C;" d="M257.706,359.015c-2.806,0-5.6-1.151-7.614-3.409c-3.751-4.203-3.383-10.651,0.82-14.401
		l96.306-85.937c4.205-3.753,10.653-3.382,14.401,0.819c3.752,4.203,3.383,10.651-0.819,14.401l-96.307,85.937
		C262.548,358.161,260.122,359.015,257.706,359.015z"/>
</g>
<g>
</g>
<g>
</g>
<g>
</g>
<g>
</g>
<g>
</g>
<g>
</g>
<g>
</g>
<g>
</g>
<g>
</g>
<g>
</g>
<g>
</g>
<g>
</g>
<g>
</g>
<g>
</g>
<g>
</g>
</svg>
